<svg xmlns="http://www.w3.org/2000/svg" width="1800" height="1120" viewBox="0 0 1800 1120" role="img" aria-label="Arsenal Platform Command Map">
  <defs>
    <linearGradient id="bg" x1="0" x2="1" y1="0" y2="1">
      <stop offset="0" stop-color="#071018"/>
      <stop offset="0.45" stop-color="#111827"/>
      <stop offset="1" stop-color="#10251f"/>
    </linearGradient>
    <linearGradient id="cyan" x1="0" x2="1"><stop offset="0" stop-color="#22d3ee"/><stop offset="1" stop-color="#2dd4bf"/></linearGradient>
    <linearGradient id="violet" x1="0" x2="1"><stop offset="0" stop-color="#8b5cf6"/><stop offset="1" stop-color="#06b6d4"/></linearGradient>
    <linearGradient id="gold" x1="0" x2="1"><stop offset="0" stop-color="#f59e0b"/><stop offset="1" stop-color="#fef08a"/></linearGradient>
    <linearGradient id="green" x1="0" x2="1"><stop offset="0" stop-color="#16a34a"/><stop offset="1" stop-color="#34d399"/></linearGradient>
    <filter id="shadow" x="-20%" y="-20%" width="140%" height="140%">
      <feDropShadow dx="0" dy="12" stdDeviation="16" flood-color="#000000" flood-opacity="0.35"/>
    </filter>
    <filter id="glow" x="-40%" y="-40%" width="180%" height="180%">
      <feGaussianBlur stdDeviation="8" result="blur"/>
      <feMerge><feMergeNode in="blur"/><feMergeNode in="SourceGraphic"/></feMerge>
    </filter>
    <style>
      .label { font-family: Inter, ui-sans-serif, system-ui, -apple-system, Segoe UI, Arial; }
      .small { font-size: 15px; fill: #9fb0c8; font-weight: 600; }
      .tiny { font-size: 12px; fill: #7f91aa; font-weight: 700; letter-spacing: .08em; }
      .card { fill: rgba(15, 23, 42, .82); stroke: rgba(148, 163, 184, .34); stroke-width: 1.2; }
      .card2 { fill: rgba(8, 13, 24, .72); stroke: rgba(45, 212, 191, .32); stroke-width: 1.4; }
      .route { fill: rgba(14, 165, 233, .13); stroke: rgba(34, 211, 238, .52); stroke-width: 1; }
      .risk { fill: rgba(244, 63, 94, .14); stroke: rgba(251, 113, 133, .5); stroke-width: 1; }
      .money { fill: rgba(245, 158, 11, .14); stroke: rgba(251, 191, 36, .55); stroke-width: 1; }
    </style>
    
  </defs>
  <rect width="1800" height="1120" fill="url(#bg)"/>
  <g opacity=".16">
    <path d="M0 120 C300 30 520 220 860 100 S1450 40 1800 150" fill="none" stroke="#22d3ee" stroke-width="2"/>
    <path d="M0 980 C360 860 720 1080 1800 940" fill="none" stroke="#34d399" stroke-width="2"/>
    <path d="M120 0 C60 300 210 600 80 1120" fill="none" stroke="#8b5cf6" stroke-width="2"/>
  </g>
  <text x="70" y="78" class="label" font-size="38" font-weight="900" fill="#f8fafc">Arsenal Platform Command Map</text>
  <text x="72" y="112" class="label" font-size="18" font-weight="650" fill="#9fb0c8">How all major primitives connect into one business operating system</text>
  <circle cx="900" cy="560" r="170" fill="rgba(34,211,238,.08)" stroke="rgba(34,211,238,.34)" stroke-width="2" filter="url(#glow)"/>
<circle cx="900" cy="560" r="112" fill="rgba(15,23,42,.92)" stroke="url(#cyan)" stroke-width="3" filter="url(#shadow)"/>
<text x="900" y="535" text-anchor="middle" class="label" font-size="28" font-weight="950" fill="#f8fafc">ARSENAL OS</text>
<text x="900" y="568" text-anchor="middle" class="label" font-size="15" font-weight="750" fill="#a8b6cf">business needs to deployed systems</text>
<text x="900" y="600" text-anchor="middle" class="label" font-size="13" font-weight="850" fill="#67e8f9">agents | spaces | vault | control plane</text>
<rect x="90" y="180" width="350" height="150" rx="18" class="card" filter="url(#shadow)"/>
<rect x="90" y="180" width="7" height="150" rx="4" fill="url(#cyan)"/>
<text x="114" y="214" class="label" font-size="20" font-weight="850" fill="#f8fafc">Digital Workforce</text>
<text x="114" y="246" class="label" font-size="15" font-weight="600" fill="#a8b6cf">Agents</text>
<text x="114" y="270" class="label" font-size="15" font-weight="600" fill="#a8b6cf">Agent Builder</text>
<text x="114" y="294" class="label" font-size="15" font-weight="600" fill="#a8b6cf">Public Agents</text>
<text x="114" y="318" class="label" font-size="15" font-weight="600" fill="#a8b6cf">Channels</text>
<path d="M440 255.0 C670 255.0 670 560 790 560" fill="none" stroke="rgba(148,163,184,.35)" stroke-width="2"/>
<rect x="90" y="410" width="350" height="190" rx="18" class="card" filter="url(#shadow)"/>
<rect x="90" y="410" width="7" height="190" rx="4" fill="url(#gold)"/>
<text x="114" y="444" class="label" font-size="20" font-weight="850" fill="#f8fafc">Business Operating System</text>
<text x="114" y="476" class="label" font-size="15" font-weight="600" fill="#a8b6cf">Business Spaces</text>
<text x="114" y="500" class="label" font-size="15" font-weight="600" fill="#a8b6cf">Smart Solution Plans</text>
<text x="114" y="524" class="label" font-size="15" font-weight="600" fill="#a8b6cf">ROI + Proposal</text>
<text x="114" y="548" class="label" font-size="15" font-weight="600" fill="#a8b6cf">Night Shift + Flex OS</text>
<path d="M440 505.0 C670 505.0 670 560 790 560" fill="none" stroke="rgba(148,163,184,.35)" stroke-width="2"/>
<rect x="90" y="680" width="350" height="150" rx="18" class="card" filter="url(#shadow)"/>
<rect x="90" y="680" width="7" height="150" rx="4" fill="url(#violet)"/>
<text x="114" y="714" class="label" font-size="20" font-weight="850" fill="#f8fafc">Creation Engines</text>
<text x="114" y="746" class="label" font-size="15" font-weight="600" fill="#a8b6cf">Z-Engine</text>
<text x="114" y="770" class="label" font-size="15" font-weight="600" fill="#a8b6cf">Instruction Lab</text>
<text x="114" y="794" class="label" font-size="15" font-weight="600" fill="#a8b6cf">Experiences</text>
<text x="114" y="818" class="label" font-size="15" font-weight="600" fill="#a8b6cf">Admin Pages</text>
<path d="M440 755.0 C670 755.0 670 560 790 560" fill="none" stroke="rgba(148,163,184,.35)" stroke-width="2"/>
<rect x="1360" y="180" width="350" height="150" rx="18" class="card" filter="url(#shadow)"/>
<rect x="1360" y="180" width="7" height="150" rx="4" fill="url(#green)"/>
<text x="1384" y="214" class="label" font-size="20" font-weight="850" fill="#f8fafc">Memory And Proof</text>
<text x="1384" y="246" class="label" font-size="15" font-weight="600" fill="#a8b6cf">Files / Vault</text>
<text x="1384" y="270" class="label" font-size="15" font-weight="600" fill="#a8b6cf">Knowledge</text>
<text x="1384" y="294" class="label" font-size="15" font-weight="600" fill="#a8b6cf">Output Vault</text>
<text x="1384" y="318" class="label" font-size="15" font-weight="600" fill="#a8b6cf">Replays + Reports</text>
<path d="M1360 255.0 C1130 255.0 1130 560 790 560" fill="none" stroke="rgba(148,163,184,.35)" stroke-width="2"/>
<rect x="1360" y="410" width="350" height="190" rx="18" class="card" filter="url(#shadow)"/>
<rect x="1360" y="410" width="7" height="190" rx="4" fill="url(#cyan)"/>
<text x="1384" y="444" class="label" font-size="20" font-weight="850" fill="#f8fafc">Distribution</text>
<text x="1384" y="476" class="label" font-size="15" font-weight="600" fill="#a8b6cf">Arsenals</text>
<text x="1384" y="500" class="label" font-size="15" font-weight="600" fill="#a8b6cf">Marketplace</text>
<text x="1384" y="524" class="label" font-size="15" font-weight="600" fill="#a8b6cf">Discover + Community</text>
<text x="1384" y="548" class="label" font-size="15" font-weight="600" fill="#a8b6cf">Embeds + Programs</text>
<path d="M1360 505.0 C1130 505.0 1130 560 790 560" fill="none" stroke="rgba(148,163,184,.35)" stroke-width="2"/>
<rect x="1360" y="680" width="350" height="150" rx="18" class="card" filter="url(#shadow)"/>
<rect x="1360" y="680" width="7" height="150" rx="4" fill="url(#gold)"/>
<text x="1384" y="714" class="label" font-size="20" font-weight="850" fill="#f8fafc">Revenue And Control</text>
<text x="1384" y="746" class="label" font-size="15" font-weight="600" fill="#a8b6cf">Subscriptions + Credits</text>
<text x="1384" y="770" class="label" font-size="15" font-weight="600" fill="#a8b6cf">Referral Rewards</text>
<text x="1384" y="794" class="label" font-size="15" font-weight="600" fill="#a8b6cf">Admin Dashboard</text>
<text x="1384" y="818" class="label" font-size="15" font-weight="600" fill="#a8b6cf">AI Route Governance</text>
<path d="M1360 755.0 C1130 755.0 1130 560 790 560" fill="none" stroke="rgba(148,163,184,.35)" stroke-width="2"/>
<path d="M480 970 H1320" stroke="url(#gold)" stroke-width="10" stroke-linecap="round" opacity=".9"/>
<text x="900" y="940" text-anchor="middle" class="label" font-size="22" font-weight="900" fill="#fde68a">Commercial spine</text>
<circle cx="520" cy="970" r="22" fill="#0f172a" stroke="#fde68a" stroke-width="2"/>
<text x="520" y="1008" text-anchor="middle" class="label" font-size="13" font-weight="850" fill="#fde68a">need</text>
<circle cx="672" cy="970" r="22" fill="#0f172a" stroke="#fde68a" stroke-width="2"/>
<text x="672" y="1008" text-anchor="middle" class="label" font-size="13" font-weight="850" fill="#fde68a">plan</text>
<circle cx="824" cy="970" r="22" fill="#0f172a" stroke="#fde68a" stroke-width="2"/>
<text x="824" y="1008" text-anchor="middle" class="label" font-size="13" font-weight="850" fill="#fde68a">build</text>
<circle cx="976" cy="970" r="22" fill="#0f172a" stroke="#fde68a" stroke-width="2"/>
<text x="976" y="1008" text-anchor="middle" class="label" font-size="13" font-weight="850" fill="#fde68a">deploy</text>
<circle cx="1128" cy="970" r="22" fill="#0f172a" stroke="#fde68a" stroke-width="2"/>
<text x="1128" y="1008" text-anchor="middle" class="label" font-size="13" font-weight="850" fill="#fde68a">measure</text>
<circle cx="1280" cy="970" r="22" fill="#0f172a" stroke="#fde68a" stroke-width="2"/>
<text x="1280" y="1008" text-anchor="middle" class="label" font-size="13" font-weight="850" fill="#fde68a">monetize</text>
<rect x="610" y="330" width="84" height="30" rx="15" fill="rgba(34, 211, 238, .14)" stroke="rgba(34, 211, 238, .5)" stroke-width="1"/><text x="652.0" y="350" text-anchor="middle" class="label" font-size="12" font-weight="850" fill="#b7f7ff">routes</text>
<rect x="1190" y="330" width="94" height="30" rx="15" fill="rgba(34, 211, 238, .14)" stroke="rgba(34, 211, 238, .5)" stroke-width="1"/><text x="1237.0" y="350" text-anchor="middle" class="label" font-size="12" font-weight="850" fill="#b7f7ff">outputs</text>
<rect x="610" y="775" width="84" height="30" rx="15" fill="rgba(34, 211, 238, .14)" stroke="rgba(34, 211, 238, .5)" stroke-width="1"/><text x="652.0" y="795" text-anchor="middle" class="label" font-size="12" font-weight="850" fill="#b7f7ff">assets</text>
<rect x="1190" y="775" width="94" height="30" rx="15" fill="rgba(34, 211, 238, .14)" stroke="rgba(34, 211, 238, .5)" stroke-width="1"/><text x="1237.0" y="795" text-anchor="middle" class="label" font-size="12" font-weight="850" fill="#b7f7ff">billing</text>
</svg>
