<svg xmlns="http://www.w3.org/2000/svg" width="1800" height="1010" viewBox="0 0 1800 1010" role="img" aria-label="Data Layer Feature Families">
  <defs>
    <linearGradient id="bg" x1="0" x2="1" y1="0" y2="1">
      <stop offset="0" stop-color="#071018"/>
      <stop offset="0.45" stop-color="#111827"/>
      <stop offset="1" stop-color="#10251f"/>
    </linearGradient>
    <linearGradient id="cyan" x1="0" x2="1"><stop offset="0" stop-color="#22d3ee"/><stop offset="1" stop-color="#2dd4bf"/></linearGradient>
    <linearGradient id="violet" x1="0" x2="1"><stop offset="0" stop-color="#8b5cf6"/><stop offset="1" stop-color="#06b6d4"/></linearGradient>
    <linearGradient id="gold" x1="0" x2="1"><stop offset="0" stop-color="#f59e0b"/><stop offset="1" stop-color="#fef08a"/></linearGradient>
    <linearGradient id="green" x1="0" x2="1"><stop offset="0" stop-color="#16a34a"/><stop offset="1" stop-color="#34d399"/></linearGradient>
    <filter id="shadow" x="-20%" y="-20%" width="140%" height="140%">
      <feDropShadow dx="0" dy="12" stdDeviation="16" flood-color="#000000" flood-opacity="0.35"/>
    </filter>
    <filter id="glow" x="-40%" y="-40%" width="180%" height="180%">
      <feGaussianBlur stdDeviation="8" result="blur"/>
      <feMerge><feMergeNode in="blur"/><feMergeNode in="SourceGraphic"/></feMerge>
    </filter>
    <style>
      .label { font-family: Inter, ui-sans-serif, system-ui, -apple-system, Segoe UI, Arial; }
      .small { font-size: 15px; fill: #9fb0c8; font-weight: 600; }
      .tiny { font-size: 12px; fill: #7f91aa; font-weight: 700; letter-spacing: .08em; }
      .card { fill: rgba(15, 23, 42, .82); stroke: rgba(148, 163, 184, .34); stroke-width: 1.2; }
      .card2 { fill: rgba(8, 13, 24, .72); stroke: rgba(45, 212, 191, .32); stroke-width: 1.4; }
      .route { fill: rgba(14, 165, 233, .13); stroke: rgba(34, 211, 238, .52); stroke-width: 1; }
      .risk { fill: rgba(244, 63, 94, .14); stroke: rgba(251, 113, 133, .5); stroke-width: 1; }
      .money { fill: rgba(245, 158, 11, .14); stroke: rgba(251, 191, 36, .55); stroke-width: 1; }
    </style>
    
  </defs>
  <rect width="1800" height="1010" fill="url(#bg)"/>
  <g opacity=".16">
    <path d="M0 120 C300 30 520 220 860 100 S1450 40 1800 150" fill="none" stroke="#22d3ee" stroke-width="2"/>
    <path d="M0 870 C360 750 720 970 1800 830" fill="none" stroke="#34d399" stroke-width="2"/>
    <path d="M120 0 C60 300 210 600 80 1010" fill="none" stroke="#8b5cf6" stroke-width="2"/>
  </g>
  <text x="70" y="78" class="label" font-size="38" font-weight="900" fill="#f8fafc">Data Layer Feature Families</text>
  <text x="72" y="112" class="label" font-size="18" font-weight="650" fill="#9fb0c8">How Arsenal table families map to product primitives and monetization</text>
  <rect x="105" y="220" width="350" height="230" rx="18" class="card" filter="url(#shadow)"/>
<rect x="105" y="220" width="7" height="230" rx="4" fill="url(#cyan)"/>
<text x="129" y="254" class="label" font-size="20" font-weight="850" fill="#f8fafc">Agents</text>
<text x="129" y="286" class="label" font-size="15" font-weight="600" fill="#a8b6cf">agents</text>
<text x="129" y="310" class="label" font-size="15" font-weight="600" fill="#a8b6cf">agent_versions</text>
<text x="129" y="334" class="label" font-size="15" font-weight="600" fill="#a8b6cf">agent_skills</text>
<text x="129" y="358" class="label" font-size="15" font-weight="600" fill="#a8b6cf">agent_memories</text>
<rect x="525" y="220" width="350" height="230" rx="18" class="card" filter="url(#shadow)"/>
<rect x="525" y="220" width="7" height="230" rx="4" fill="url(#cyan)"/>
<text x="549" y="254" class="label" font-size="20" font-weight="850" fill="#f8fafc">Business</text>
<text x="549" y="286" class="label" font-size="15" font-weight="600" fill="#a8b6cf">business_spaces</text>
<text x="549" y="310" class="label" font-size="15" font-weight="600" fill="#a8b6cf">night_shifts</text>
<text x="549" y="334" class="label" font-size="15" font-weight="600" fill="#a8b6cf">solution_plans</text>
<text x="549" y="358" class="label" font-size="15" font-weight="600" fill="#a8b6cf">operator_logs</text>
<rect x="945" y="220" width="350" height="230" rx="18" class="card" filter="url(#shadow)"/>
<rect x="945" y="220" width="7" height="230" rx="4" fill="url(#cyan)"/>
<text x="969" y="254" class="label" font-size="20" font-weight="850" fill="#f8fafc">Vault</text>
<text x="969" y="286" class="label" font-size="15" font-weight="600" fill="#a8b6cf">workspace_files</text>
<text x="969" y="310" class="label" font-size="15" font-weight="600" fill="#a8b6cf">file_versions</text>
<text x="969" y="334" class="label" font-size="15" font-weight="600" fill="#a8b6cf">knowledge_sources</text>
<text x="969" y="358" class="label" font-size="15" font-weight="600" fill="#a8b6cf">remote_jobs</text>
<rect x="1365" y="220" width="350" height="230" rx="18" class="card" filter="url(#shadow)"/>
<rect x="1365" y="220" width="7" height="230" rx="4" fill="url(#green)"/>
<text x="1389" y="254" class="label" font-size="20" font-weight="850" fill="#f8fafc">Revenue</text>
<text x="1389" y="286" class="label" font-size="15" font-weight="600" fill="#a8b6cf">credit_accounts</text>
<text x="1389" y="310" class="label" font-size="15" font-weight="600" fill="#a8b6cf">credit_ledger</text>
<text x="1389" y="334" class="label" font-size="15" font-weight="600" fill="#a8b6cf">subscribers</text>
<text x="1389" y="358" class="label" font-size="15" font-weight="600" fill="#a8b6cf">topup_packs</text>
<rect x="105" y="540" width="350" height="230" rx="18" class="card" filter="url(#shadow)"/>
<rect x="105" y="540" width="7" height="230" rx="4" fill="url(#green)"/>
<text x="129" y="574" class="label" font-size="20" font-weight="850" fill="#f8fafc">Admin</text>
<text x="129" y="606" class="label" font-size="15" font-weight="600" fill="#a8b6cf">admin_api_keys</text>
<text x="129" y="630" class="label" font-size="15" font-weight="600" fill="#a8b6cf">feature_flags</text>
<text x="129" y="654" class="label" font-size="15" font-weight="600" fill="#a8b6cf">audit_log</text>
<text x="129" y="678" class="label" font-size="15" font-weight="600" fill="#a8b6cf">platform_admins</text>
<rect x="525" y="540" width="350" height="230" rx="18" class="card" filter="url(#shadow)"/>
<rect x="525" y="540" width="7" height="230" rx="4" fill="url(#cyan)"/>
<text x="549" y="574" class="label" font-size="20" font-weight="850" fill="#f8fafc">Marketplace</text>
<text x="549" y="606" class="label" font-size="15" font-weight="600" fill="#a8b6cf">arsenals</text>
<text x="549" y="630" class="label" font-size="15" font-weight="600" fill="#a8b6cf">prompt_packs</text>
<text x="549" y="654" class="label" font-size="15" font-weight="600" fill="#a8b6cf">community_posts</text>
<text x="549" y="678" class="label" font-size="15" font-weight="600" fill="#a8b6cf">discover_likes</text>
<rect x="945" y="540" width="350" height="230" rx="18" class="card" filter="url(#shadow)"/>
<rect x="945" y="540" width="7" height="230" rx="4" fill="url(#cyan)"/>
<text x="969" y="574" class="label" font-size="20" font-weight="850" fill="#f8fafc">Partners</text>
<text x="969" y="606" class="label" font-size="15" font-weight="600" fill="#a8b6cf">partner_profiles</text>
<text x="969" y="630" class="label" font-size="15" font-weight="600" fill="#a8b6cf">referrals</text>
<text x="969" y="654" class="label" font-size="15" font-weight="600" fill="#a8b6cf">commissions</text>
<text x="969" y="678" class="label" font-size="15" font-weight="600" fill="#a8b6cf">settings</text>
<rect x="1365" y="540" width="350" height="230" rx="18" class="card" filter="url(#shadow)"/>
<rect x="1365" y="540" width="7" height="230" rx="4" fill="url(#cyan)"/>
<text x="1389" y="574" class="label" font-size="20" font-weight="850" fill="#f8fafc">Programs</text>
<text x="1389" y="606" class="label" font-size="15" font-weight="600" fill="#a8b6cf">enrollments</text>
<text x="1389" y="630" class="label" font-size="15" font-weight="600" fill="#a8b6cf">credentials</text>
<text x="1389" y="654" class="label" font-size="15" font-weight="600" fill="#a8b6cf">artifacts</text>
<text x="1389" y="678" class="label" font-size="15" font-weight="600" fill="#a8b6cf">progress_events</text>
<path d="M280 450 C490 380 490 380 700 450" fill="none" stroke="rgba(148,163,184,.22)" stroke-width="2"/>
<path d="M700 450 C910 380 910 380 1120 450" fill="none" stroke="rgba(148,163,184,.22)" stroke-width="2"/>
<path d="M1120 450 C1330 380 1330 380 1540 450" fill="none" stroke="rgba(148,163,184,.22)" stroke-width="2"/>
<path d="M280 770 C490 700 490 700 700 770" fill="none" stroke="rgba(148,163,184,.22)" stroke-width="2"/>
<path d="M700 770 C910 700 910 700 1120 770" fill="none" stroke="rgba(148,163,184,.22)" stroke-width="2"/>
<path d="M1120 770 C1330 700 1330 700 1540 770" fill="none" stroke="rgba(148,163,184,.22)" stroke-width="2"/>
<text x="900" y="910" text-anchor="middle" class="label" font-size="22" font-weight="950" fill="#dce7ff">The data model is not random tables: it forms product families that support revenue, proof, governance, and distribution.</text>
</svg>
