<svg xmlns="http://www.w3.org/2000/svg" width="1500" height="1020" viewBox="0 0 1500 1020" role="img" aria-label="Leverage Compounding Loops">
<defs>
  <linearGradient id="bg" x1="0" y1="0" x2="1" y2="1">
    <stop offset="0%" stop-color="#06111f"/>
    <stop offset="42%" stop-color="#10233f"/>
    <stop offset="100%" stop-color="#161827"/>
  </linearGradient>
  <linearGradient id="card" x1="0" y1="0" x2="1" y2="1">
    <stop offset="0%" stop-color="#1e3a5f" stop-opacity="0.88"/>
    <stop offset="100%" stop-color="#0f172a" stop-opacity="0.94"/>
  </linearGradient>
  <linearGradient id="hot" x1="0" y1="0" x2="1" y2="1">
    <stop offset="0%" stop-color="#2dd4bf"/>
    <stop offset="52%" stop-color="#60a5fa"/>
    <stop offset="100%" stop-color="#f59e0b"/>
  </linearGradient>
  <linearGradient id="violet" x1="0" y1="0" x2="1" y2="1">
    <stop offset="0%" stop-color="#a78bfa"/>
    <stop offset="100%" stop-color="#22d3ee"/>
  </linearGradient>
  <filter id="shadow" x="-20%" y="-20%" width="140%" height="140%">
    <feDropShadow dx="0" dy="12" stdDeviation="12" flood-color="#020617" flood-opacity="0.45"/>
  </filter>
  <marker id="arrow" viewBox="0 0 10 10" refX="8" refY="5" markerWidth="7" markerHeight="7" orient="auto-start-reverse">
    <path d="M 0 0 L 10 5 L 0 10 z" fill="#38bdf8"/>
  </marker>
</defs>
<rect width="1500" height="1020" fill="url(#bg)"/>
<rect x="18" y="18" width="1464" height="984" rx="22" fill="none" stroke="#334155" stroke-width="1.2" opacity="0.8"/>
<text x="42" y="64" fill="#f8fafc" font-size="31" font-weight="800" font-family="Inter, Segoe UI, Arial, sans-serif" text-anchor="start" opacity="1"><tspan x="42" dy="0">Leverage Compounding Loops</tspan></text>
<text x="44" y="96" fill="#cbd5e1" font-size="14" font-weight="500" font-family="Inter, Segoe UI, Arial, sans-serif" text-anchor="start" opacity="1"><tspan x="44" dy="0">How Arsenal turns pain, work, proof, governance, marketplace assets, and referrals into repeatable revenue.</tspan></text>
<path d="M710 160 C860.0 160, 860.0 250, 1010 250" fill="none" stroke="#38bdf8" stroke-width="3" opacity="0.55" marker-end="url(#arrow)"/><path d="M1010 250 C1085.0 250, 1085.0 520, 1160 520" fill="none" stroke="#38bdf8" stroke-width="3" opacity="0.55" marker-end="url(#arrow)"/><path d="M1160 520 C1085.0 520, 1085.0 790, 1010 790" fill="none" stroke="#38bdf8" stroke-width="3" opacity="0.55" marker-end="url(#arrow)"/><path d="M1010 790 C860.0 790, 860.0 880, 710 880" fill="none" stroke="#38bdf8" stroke-width="3" opacity="0.55" marker-end="url(#arrow)"/><path d="M710 880 C560.0 880, 560.0 790, 410 790" fill="none" stroke="#38bdf8" stroke-width="3" opacity="0.55" marker-end="url(#arrow)"/><path d="M410 790 C335.0 790, 335.0 520, 260 520" fill="none" stroke="#38bdf8" stroke-width="3" opacity="0.55" marker-end="url(#arrow)"/><path d="M260 520 C335.0 520, 335.0 250, 410 250" fill="none" stroke="#38bdf8" stroke-width="3" opacity="0.55" marker-end="url(#arrow)"/><path d="M410 250 C560.0 250, 560.0 160, 710 160" fill="none" stroke="#38bdf8" stroke-width="3" opacity="0.55" marker-end="url(#arrow)"/><circle cx="710" cy="160" r="64" fill="#2dd4bf" opacity="0.15" stroke="#2dd4bf" stroke-width="2.5"/><circle cx="710" cy="160" r="8" fill="#2dd4bf"/><text x="710" y="244" fill="#f8fafc" font-size="15" font-weight="900" font-family="Inter, Segoe UI, Arial, sans-serif" text-anchor="middle" opacity="1"><tspan x="710" dy="0">Lead Pain</tspan></text><circle cx="1010" cy="250" r="64" fill="#60a5fa" opacity="0.15" stroke="#60a5fa" stroke-width="2.5"/><circle cx="1010" cy="250" r="8" fill="#60a5fa"/><text x="1010" y="334" fill="#f8fafc" font-size="15" font-weight="900" font-family="Inter, Segoe UI, Arial, sans-serif" text-anchor="middle" opacity="1"><tspan x="1010" dy="0">Smart Plan</tspan></text><circle cx="1160" cy="520" r="64" fill="#a78bfa" opacity="0.15" stroke="#a78bfa" stroke-width="2.5"/><circle cx="1160" cy="520" r="8" fill="#a78bfa"/><text x="1160" y="604" fill="#f8fafc" font-size="15" font-weight="900" font-family="Inter, Segoe UI, Arial, sans-serif" text-anchor="middle" opacity="1"><tspan x="1160" dy="0">Business Space</tspan></text><circle cx="1010" cy="790" r="64" fill="#f59e0b" opacity="0.15" stroke="#f59e0b" stroke-width="2.5"/><circle cx="1010" cy="790" r="8" fill="#f59e0b"/><text x="1010" y="874" fill="#f8fafc" font-size="15" font-weight="900" font-family="Inter, Segoe UI, Arial, sans-serif" text-anchor="middle" opacity="1"><tspan x="1010" dy="0">Night Shift Work</tspan></text><circle cx="710" cy="880" r="64" fill="#22d3ee" opacity="0.15" stroke="#22d3ee" stroke-width="2.5"/><circle cx="710" cy="880" r="8" fill="#22d3ee"/><text x="710" y="964" fill="#f8fafc" font-size="15" font-weight="900" font-family="Inter, Segoe UI, Arial, sans-serif" text-anchor="middle" opacity="1"><tspan x="710" dy="0">Vault Proof</tspan></text><circle cx="410" cy="790" r="64" fill="#34d399" opacity="0.15" stroke="#34d399" stroke-width="2.5"/><circle cx="410" cy="790" r="8" fill="#34d399"/><text x="410" y="874" fill="#f8fafc" font-size="15" font-weight="900" font-family="Inter, Segoe UI, Arial, sans-serif" text-anchor="middle" opacity="1"><tspan x="410" dy="0">Client Portal</tspan></text><circle cx="260" cy="520" r="64" fill="#f472b6" opacity="0.15" stroke="#f472b6" stroke-width="2.5"/><circle cx="260" cy="520" r="8" fill="#f472b6"/><text x="260" y="604" fill="#f8fafc" font-size="15" font-weight="900" font-family="Inter, Segoe UI, Arial, sans-serif" text-anchor="middle" opacity="1"><tspan x="260" dy="0">Referral</tspan></text><circle cx="410" cy="250" r="64" fill="#fb7185" opacity="0.15" stroke="#fb7185" stroke-width="2.5"/><circle cx="410" cy="250" r="8" fill="#fb7185"/><text x="410" y="334" fill="#f8fafc" font-size="15" font-weight="900" font-family="Inter, Segoe UI, Arial, sans-serif" text-anchor="middle" opacity="1"><tspan x="410" dy="0">Marketplace Asset</tspan></text><circle cx="710" cy="520" r="160" fill="#0f172a" stroke="#334155" stroke-width="1.4" filter="url(#shadow)"/><text x="710" y="490" fill="#f8fafc" font-size="26" font-weight="900" font-family="Inter, Segoe UI, Arial, sans-serif" text-anchor="middle" opacity="1"><tspan x="710" dy="0">Core insight</tspan></text><text x="710" y="528" fill="#cbd5e1" font-size="16" font-weight="700" font-family="Inter, Segoe UI, Arial, sans-serif" text-anchor="middle" opacity="1"><tspan x="710" dy="0">Every run should create an asset</tspan><tspan x="710" dy="19">that makes the next sale easier.</tspan></text><rect x="52" y="870" width="390" height="82" rx="14" fill="url(#card)" stroke="#334155" stroke-width="1" filter="url(#shadow)"/><rect x="52" y="870" width="5" height="82" rx="3" fill="#2dd4bf"/><text x="70" y="902" fill="#f8fafc" font-size="15" font-weight="800" font-family="Inter, Segoe UI, Arial, sans-serif" text-anchor="start" opacity="1"><tspan x="70" dy="0">Revenue loop</tspan></text><text x="70" y="932" fill="#cbd5e1" font-size="12" font-weight="500" font-family="Inter, Segoe UI, Arial, sans-serif" text-anchor="start" opacity="1"><tspan x="70" dy="0">Lead -&gt; plan -&gt; workspace -&gt;</tspan><tspan x="70" dy="15">credits/subscription.</tspan></text><rect x="555" y="870" width="390" height="82" rx="14" fill="url(#card)" stroke="#334155" stroke-width="1" filter="url(#shadow)"/><rect x="555" y="870" width="5" height="82" rx="3" fill="#f59e0b"/><text x="573" y="902" fill="#f8fafc" font-size="15" font-weight="800" font-family="Inter, Segoe UI, Arial, sans-serif" text-anchor="start" opacity="1"><tspan x="573" dy="0">Proof loop</tspan></text><text x="573" y="932" fill="#cbd5e1" font-size="12" font-weight="500" font-family="Inter, Segoe UI, Arial, sans-serif" text-anchor="start" opacity="1"><tspan x="573" dy="0">Work -&gt; replay -&gt; Vault -&gt; portal -&gt; case</tspan><tspan x="573" dy="15">study.</tspan></text><rect x="1058" y="870" width="390" height="82" rx="14" fill="url(#card)" stroke="#334155" stroke-width="1" filter="url(#shadow)"/><rect x="1058" y="870" width="5" height="82" rx="3" fill="#f472b6"/><text x="1076" y="902" fill="#f8fafc" font-size="15" font-weight="800" font-family="Inter, Segoe UI, Arial, sans-serif" text-anchor="start" opacity="1"><tspan x="1076" dy="0">Distribution loop</tspan></text><text x="1076" y="932" fill="#cbd5e1" font-size="12" font-weight="500" font-family="Inter, Segoe UI, Arial, sans-serif" text-anchor="start" opacity="1"><tspan x="1076" dy="0">Proof -&gt; partner -&gt; referral -&gt; next</tspan><tspan x="1076" dy="15">workspace.</tspan></text><g transform="translate(0,978)"><text x="44" y="0" fill="#94a3b8" font-size="12" font-weight="600" font-family="Inter, Segoe UI, Arial, sans-serif" text-anchor="start" opacity="1"><tspan x="44" dy="0">Arsenal Atlas strategic leverage layer</tspan></text><text x="1456" y="0" fill="#64748b" font-size="11" font-family="Inter, Segoe UI, Arial, sans-serif" text-anchor="end">Public Atlas artifact. No secrets or customer data.</text></g></svg>
