<svg xmlns="http://www.w3.org/2000/svg" width="1800" height="1080" viewBox="0 0 1800 1080" role="img" aria-label="Marketplace Commerce Flywheel">
  <defs>
    <linearGradient id="bg" x1="0" x2="1" y1="0" y2="1">
      <stop offset="0" stop-color="#071018"/>
      <stop offset="0.45" stop-color="#111827"/>
      <stop offset="1" stop-color="#10251f"/>
    </linearGradient>
    <linearGradient id="cyan" x1="0" x2="1"><stop offset="0" stop-color="#22d3ee"/><stop offset="1" stop-color="#2dd4bf"/></linearGradient>
    <linearGradient id="violet" x1="0" x2="1"><stop offset="0" stop-color="#8b5cf6"/><stop offset="1" stop-color="#06b6d4"/></linearGradient>
    <linearGradient id="gold" x1="0" x2="1"><stop offset="0" stop-color="#f59e0b"/><stop offset="1" stop-color="#fef08a"/></linearGradient>
    <linearGradient id="green" x1="0" x2="1"><stop offset="0" stop-color="#16a34a"/><stop offset="1" stop-color="#34d399"/></linearGradient>
    <filter id="shadow" x="-20%" y="-20%" width="140%" height="140%">
      <feDropShadow dx="0" dy="12" stdDeviation="16" flood-color="#000000" flood-opacity="0.35"/>
    </filter>
    <filter id="glow" x="-40%" y="-40%" width="180%" height="180%">
      <feGaussianBlur stdDeviation="8" result="blur"/>
      <feMerge><feMergeNode in="blur"/><feMergeNode in="SourceGraphic"/></feMerge>
    </filter>
    <style>
      .label { font-family: Inter, ui-sans-serif, system-ui, -apple-system, Segoe UI, Arial; }
      .small { font-size: 15px; fill: #9fb0c8; font-weight: 600; }
      .tiny { font-size: 12px; fill: #7f91aa; font-weight: 700; letter-spacing: .08em; }
      .card { fill: rgba(15, 23, 42, .82); stroke: rgba(148, 163, 184, .34); stroke-width: 1.2; }
      .card2 { fill: rgba(8, 13, 24, .72); stroke: rgba(45, 212, 191, .32); stroke-width: 1.4; }
      .route { fill: rgba(14, 165, 233, .13); stroke: rgba(34, 211, 238, .52); stroke-width: 1; }
      .risk { fill: rgba(244, 63, 94, .14); stroke: rgba(251, 113, 133, .5); stroke-width: 1; }
      .money { fill: rgba(245, 158, 11, .14); stroke: rgba(251, 191, 36, .55); stroke-width: 1; }
    </style>
    
  </defs>
  <rect width="1800" height="1080" fill="url(#bg)"/>
  <g opacity=".16">
    <path d="M0 120 C300 30 520 220 860 100 S1450 40 1800 150" fill="none" stroke="#22d3ee" stroke-width="2"/>
    <path d="M0 940 C360 820 720 1040 1800 900" fill="none" stroke="#34d399" stroke-width="2"/>
    <path d="M120 0 C60 300 210 600 80 1080" fill="none" stroke="#8b5cf6" stroke-width="2"/>
  </g>
  <text x="70" y="78" class="label" font-size="38" font-weight="900" fill="#f8fafc">Marketplace Commerce Flywheel</text>
  <text x="72" y="112" class="label" font-size="18" font-weight="650" fill="#9fb0c8">How Arsenal assets can become a creator economy with commission and proof</text>
  <circle cx="900.0" cy="210.0" r="74" fill="rgba(15,23,42,.82)" stroke="rgba(34,211,238,.5)" stroke-width="2" filter="url(#shadow)"/>
<text x="900.0" y="202.0" text-anchor="middle" class="label" font-size="20" font-weight="950" fill="#f8fafc">Build</text>
<text font-size="12" font-weight="700" fill="#9fb0c8"><tspan x="848" y="228">creator makes</tspan><tspan x="848" y="243">agent, pack,</tspan><tspan x="848" y="258">skill, Arsenal</tspan></text>
<path d="M900.0 210.0 Q900 540 1056.4 249.4" fill="none" stroke="rgba(251,191,36,.34)" stroke-width="3"/>
<circle cx="1158.0" cy="334.2" r="74" fill="rgba(15,23,42,.82)" stroke="rgba(34,211,238,.5)" stroke-width="2" filter="url(#shadow)"/>
<text x="1158.0" y="326.2" text-anchor="middle" class="label" font-size="20" font-weight="950" fill="#f8fafc">Review</text>
<text font-size="12" font-weight="700" fill="#9fb0c8"><tspan x="1106" y="352">quality, risk,</tspan><tspan x="1106" y="367">screenshots,</tspan><tspan x="1106" y="382">pricing</tspan></text>
<path d="M1158.0 334.2 Q900 540 1224.7 481.1" fill="none" stroke="rgba(251,191,36,.34)" stroke-width="3"/>
<circle cx="1221.7" cy="613.4" r="74" fill="rgba(15,23,42,.82)" stroke="rgba(34,211,238,.5)" stroke-width="2" filter="url(#shadow)"/>
<text x="1221.7" y="605.4" text-anchor="middle" class="label" font-size="20" font-weight="950" fill="#f8fafc">List</text>
<text font-size="12" font-weight="700" fill="#9fb0c8"><tspan x="1169" y="631">marketplace</tspan><tspan x="1169" y="646">page with proof</tspan></text>
<path d="M1221.7 613.4 Q900 540 1148.5 757.1" fill="none" stroke="rgba(251,191,36,.34)" stroke-width="3"/>
<circle cx="1043.2" cy="837.3" r="74" fill="rgba(15,23,42,.82)" stroke="rgba(34,211,238,.5)" stroke-width="2" filter="url(#shadow)"/>
<text x="1043.2" y="829.3" text-anchor="middle" class="label" font-size="20" font-weight="950" fill="#f8fafc">Discover</text>
<text font-size="12" font-weight="700" fill="#9fb0c8"><tspan x="991" y="855">search,</tspan><tspan x="991" y="870">categories,</tspan><tspan x="991" y="885">social proof</tspan></text>
<path d="M1043.2 837.3 Q900 540 885.2 869.7" fill="none" stroke="rgba(251,191,36,.34)" stroke-width="3"/>
<circle cx="756.8" cy="837.3" r="74" fill="rgba(15,23,42,.82)" stroke="rgba(34,211,238,.5)" stroke-width="2" filter="url(#shadow)"/>
<text x="756.8" y="829.3" text-anchor="middle" class="label" font-size="20" font-weight="950" fill="#f8fafc">Buy/Use</text>
<text font-size="12" font-weight="700" fill="#9fb0c8"><tspan x="704" y="855">checkout,</tspan><tspan x="704" y="870">install,</tspan><tspan x="704" y="885">entitlement</tspan></text>
<path d="M756.8 837.3 Q900 540 633.0 734.0" fill="none" stroke="rgba(251,191,36,.34)" stroke-width="3"/>
<circle cx="578.3" cy="613.4" r="74" fill="rgba(15,23,42,.82)" stroke="rgba(34,211,238,.5)" stroke-width="2" filter="url(#shadow)"/>
<text x="578.3" y="605.4" text-anchor="middle" class="label" font-size="20" font-weight="950" fill="#f8fafc">Earn</text>
<text font-size="12" font-weight="700" fill="#9fb0c8"><tspan x="526" y="631">creator payout,</tspan><tspan x="526" y="646">Arsenal</tspan><tspan x="526" y="661">commission</tspan></text>
<path d="M578.3 613.4 Q900 540 581.9 452.2" fill="none" stroke="rgba(251,191,36,.34)" stroke-width="3"/>
<circle cx="642.0" cy="334.2" r="74" fill="rgba(15,23,42,.82)" stroke="rgba(34,211,238,.5)" stroke-width="2" filter="url(#shadow)"/>
<text x="642.0" y="326.2" text-anchor="middle" class="label" font-size="20" font-weight="950" fill="#f8fafc">Improve</text>
<text font-size="12" font-weight="700" fill="#9fb0c8"><tspan x="589" y="352">usage data</tspan><tspan x="589" y="367">improves assets</tspan></text>
<path d="M642.0 334.2 Q900 540 770.3 236.6" fill="none" stroke="rgba(251,191,36,.34)" stroke-width="3"/>
<circle cx="900" cy="540" r="135" fill="rgba(245,158,11,.14)" stroke="rgba(251,191,36,.55)" stroke-width="2" filter="url(#glow)"/>
<text x="900" y="520" text-anchor="middle" class="label" font-size="28" font-weight="950" fill="#fde68a">Creator</text>
<text x="900" y="553" text-anchor="middle" class="label" font-size="28" font-weight="950" fill="#fde68a">Marketplace</text>
<text x="900" y="585" text-anchor="middle" class="label" font-size="15" font-weight="800" fill="#fef3c7">network effect loop</text>
</svg>
