<svg xmlns="http://www.w3.org/2000/svg" width="1800" height="1040" viewBox="0 0 1800 1040" role="img" aria-label="Screenshot Capture Board">
  <defs>
    <linearGradient id="bg" x1="0" x2="1" y1="0" y2="1">
      <stop offset="0" stop-color="#071018"/>
      <stop offset="0.45" stop-color="#111827"/>
      <stop offset="1" stop-color="#10251f"/>
    </linearGradient>
    <linearGradient id="cyan" x1="0" x2="1"><stop offset="0" stop-color="#22d3ee"/><stop offset="1" stop-color="#2dd4bf"/></linearGradient>
    <linearGradient id="violet" x1="0" x2="1"><stop offset="0" stop-color="#8b5cf6"/><stop offset="1" stop-color="#06b6d4"/></linearGradient>
    <linearGradient id="gold" x1="0" x2="1"><stop offset="0" stop-color="#f59e0b"/><stop offset="1" stop-color="#fef08a"/></linearGradient>
    <linearGradient id="green" x1="0" x2="1"><stop offset="0" stop-color="#16a34a"/><stop offset="1" stop-color="#34d399"/></linearGradient>
    <filter id="shadow" x="-20%" y="-20%" width="140%" height="140%">
      <feDropShadow dx="0" dy="12" stdDeviation="16" flood-color="#000000" flood-opacity="0.35"/>
    </filter>
    <filter id="glow" x="-40%" y="-40%" width="180%" height="180%">
      <feGaussianBlur stdDeviation="8" result="blur"/>
      <feMerge><feMergeNode in="blur"/><feMergeNode in="SourceGraphic"/></feMerge>
    </filter>
    <style>
      .label { font-family: Inter, ui-sans-serif, system-ui, -apple-system, Segoe UI, Arial; }
      .small { font-size: 15px; fill: #9fb0c8; font-weight: 600; }
      .tiny { font-size: 12px; fill: #7f91aa; font-weight: 700; letter-spacing: .08em; }
      .card { fill: rgba(15, 23, 42, .82); stroke: rgba(148, 163, 184, .34); stroke-width: 1.2; }
      .card2 { fill: rgba(8, 13, 24, .72); stroke: rgba(45, 212, 191, .32); stroke-width: 1.4; }
      .route { fill: rgba(14, 165, 233, .13); stroke: rgba(34, 211, 238, .52); stroke-width: 1; }
      .risk { fill: rgba(244, 63, 94, .14); stroke: rgba(251, 113, 133, .5); stroke-width: 1; }
      .money { fill: rgba(245, 158, 11, .14); stroke: rgba(251, 191, 36, .55); stroke-width: 1; }
    </style>
    
  </defs>
  <rect width="1800" height="1040" fill="url(#bg)"/>
  <g opacity=".16">
    <path d="M0 120 C300 30 520 220 860 100 S1450 40 1800 150" fill="none" stroke="#22d3ee" stroke-width="2"/>
    <path d="M0 900 C360 780 720 1000 1800 860" fill="none" stroke="#34d399" stroke-width="2"/>
    <path d="M120 0 C60 300 210 600 80 1040" fill="none" stroke="#8b5cf6" stroke-width="2"/>
  </g>
  <text x="70" y="78" class="label" font-size="38" font-weight="900" fill="#f8fafc">Screenshot Capture Board</text>
  <text x="72" y="112" class="label" font-size="18" font-weight="650" fill="#9fb0c8">The order of visuals that best explains Arsenal from platform to revenue</text>
  <rect x="90" y="190" width="360" height="190" rx="22" fill="rgba(15,23,42,.72)" stroke="rgba(148,163,184,.35)" filter="url(#shadow)"/>
<rect x="108" y="210" width="324" height="86" rx="16" fill="rgba(34,211,238,.08)" stroke="rgba(34,211,238,.26)"/>
<circle cx="138" cy="240" r="16" fill="url(#cyan)"/>
<rect x="168" y="228" width="230" height="10" rx="5" fill="#334155"/>
<rect x="168" y="250" width="170" height="10" rx="5" fill="#1e293b"/>
<text x="112" y="325" class="label" font-size="23" font-weight="950" fill="#f8fafc">1. Dashboard</text>
<text x="112" y="354" class="label" font-size="15" font-weight="700" fill="#9fb0c8">OS overview</text>
<rect x="510" y="190" width="360" height="190" rx="22" fill="rgba(15,23,42,.72)" stroke="rgba(148,163,184,.35)" filter="url(#shadow)"/>
<rect x="528" y="210" width="324" height="86" rx="16" fill="rgba(34,211,238,.08)" stroke="rgba(34,211,238,.26)"/>
<circle cx="558" cy="240" r="16" fill="url(#cyan)"/>
<rect x="588" y="228" width="230" height="10" rx="5" fill="#334155"/>
<rect x="588" y="250" width="170" height="10" rx="5" fill="#1e293b"/>
<text x="532" y="325" class="label" font-size="23" font-weight="950" fill="#f8fafc">2. Business Spaces</text>
<text x="532" y="354" class="label" font-size="15" font-weight="700" fill="#9fb0c8">B2B value</text>
<rect x="930" y="190" width="360" height="190" rx="22" fill="rgba(15,23,42,.72)" stroke="rgba(148,163,184,.35)" filter="url(#shadow)"/>
<rect x="948" y="210" width="324" height="86" rx="16" fill="rgba(34,211,238,.08)" stroke="rgba(34,211,238,.26)"/>
<circle cx="978" cy="240" r="16" fill="url(#cyan)"/>
<rect x="1008" y="228" width="230" height="10" rx="5" fill="#334155"/>
<rect x="1008" y="250" width="170" height="10" rx="5" fill="#1e293b"/>
<text x="952" y="325" class="label" font-size="23" font-weight="950" fill="#f8fafc">3. Command Center</text>
<text x="952" y="354" class="label" font-size="15" font-weight="700" fill="#9fb0c8">workspace cockpit</text>
<rect x="1350" y="190" width="360" height="190" rx="22" fill="rgba(15,23,42,.72)" stroke="rgba(148,163,184,.35)" filter="url(#shadow)"/>
<rect x="1368" y="210" width="324" height="86" rx="16" fill="rgba(34,211,238,.08)" stroke="rgba(34,211,238,.26)"/>
<circle cx="1398" cy="240" r="16" fill="url(#cyan)"/>
<rect x="1428" y="228" width="230" height="10" rx="5" fill="#334155"/>
<rect x="1428" y="250" width="170" height="10" rx="5" fill="#1e293b"/>
<text x="1372" y="325" class="label" font-size="23" font-weight="950" fill="#f8fafc">4. ROI</text>
<text x="1372" y="354" class="label" font-size="15" font-weight="700" fill="#9fb0c8">measurable case</text>
<rect x="90" y="435" width="360" height="190" rx="22" fill="rgba(15,23,42,.72)" stroke="rgba(148,163,184,.35)" filter="url(#shadow)"/>
<rect x="108" y="455" width="324" height="86" rx="16" fill="rgba(34,211,238,.08)" stroke="rgba(34,211,238,.26)"/>
<circle cx="138" cy="485" r="16" fill="url(#cyan)"/>
<rect x="168" y="473" width="230" height="10" rx="5" fill="#334155"/>
<rect x="168" y="495" width="170" height="10" rx="5" fill="#1e293b"/>
<text x="112" y="570" class="label" font-size="23" font-weight="950" fill="#f8fafc">5. Proposal</text>
<text x="112" y="599" class="label" font-size="15" font-weight="700" fill="#9fb0c8">sales proof</text>
<rect x="510" y="435" width="360" height="190" rx="22" fill="rgba(15,23,42,.72)" stroke="rgba(148,163,184,.35)" filter="url(#shadow)"/>
<rect x="528" y="455" width="324" height="86" rx="16" fill="rgba(34,211,238,.08)" stroke="rgba(34,211,238,.26)"/>
<circle cx="558" cy="485" r="16" fill="url(#cyan)"/>
<rect x="588" y="473" width="230" height="10" rx="5" fill="#334155"/>
<rect x="588" y="495" width="170" height="10" rx="5" fill="#1e293b"/>
<text x="532" y="570" class="label" font-size="23" font-weight="950" fill="#f8fafc">6. Night Shift</text>
<text x="532" y="599" class="label" font-size="15" font-weight="700" fill="#9fb0c8">proactive work</text>
<rect x="930" y="435" width="360" height="190" rx="22" fill="rgba(15,23,42,.72)" stroke="rgba(148,163,184,.35)" filter="url(#shadow)"/>
<rect x="948" y="455" width="324" height="86" rx="16" fill="rgba(34,211,238,.08)" stroke="rgba(34,211,238,.26)"/>
<circle cx="978" cy="485" r="16" fill="url(#cyan)"/>
<rect x="1008" y="473" width="230" height="10" rx="5" fill="#334155"/>
<rect x="1008" y="495" width="170" height="10" rx="5" fill="#1e293b"/>
<text x="952" y="570" class="label" font-size="23" font-weight="950" fill="#f8fafc">7. Output Vault</text>
<text x="952" y="599" class="label" font-size="15" font-weight="700" fill="#9fb0c8">proof layer</text>
<rect x="1350" y="435" width="360" height="190" rx="22" fill="rgba(15,23,42,.72)" stroke="rgba(148,163,184,.35)" filter="url(#shadow)"/>
<rect x="1368" y="455" width="324" height="86" rx="16" fill="rgba(34,211,238,.08)" stroke="rgba(34,211,238,.26)"/>
<circle cx="1398" cy="485" r="16" fill="url(#cyan)"/>
<rect x="1428" y="473" width="230" height="10" rx="5" fill="#334155"/>
<rect x="1428" y="495" width="170" height="10" rx="5" fill="#1e293b"/>
<text x="1372" y="570" class="label" font-size="23" font-weight="950" fill="#f8fafc">8. Agent Builder</text>
<text x="1372" y="599" class="label" font-size="15" font-weight="700" fill="#9fb0c8">digital worker</text>
<rect x="90" y="680" width="360" height="190" rx="22" fill="rgba(15,23,42,.72)" stroke="rgba(148,163,184,.35)" filter="url(#shadow)"/>
<rect x="108" y="700" width="324" height="86" rx="16" fill="rgba(34,211,238,.08)" stroke="rgba(34,211,238,.26)"/>
<circle cx="138" cy="730" r="16" fill="url(#cyan)"/>
<rect x="168" y="718" width="230" height="10" rx="5" fill="#334155"/>
<rect x="168" y="740" width="170" height="10" rx="5" fill="#1e293b"/>
<text x="112" y="815" class="label" font-size="23" font-weight="950" fill="#f8fafc">9. Share Studio</text>
<text x="112" y="844" class="label" font-size="15" font-weight="700" fill="#9fb0c8">deploy everywhere</text>
<rect x="510" y="680" width="360" height="190" rx="22" fill="rgba(15,23,42,.72)" stroke="rgba(148,163,184,.35)" filter="url(#shadow)"/>
<rect x="528" y="700" width="324" height="86" rx="16" fill="rgba(34,211,238,.08)" stroke="rgba(34,211,238,.26)"/>
<circle cx="558" cy="730" r="16" fill="url(#cyan)"/>
<rect x="588" y="718" width="230" height="10" rx="5" fill="#334155"/>
<rect x="588" y="740" width="170" height="10" rx="5" fill="#1e293b"/>
<text x="532" y="815" class="label" font-size="23" font-weight="950" fill="#f8fafc">10. Z-Engine</text>
<text x="532" y="844" class="label" font-size="15" font-weight="700" fill="#9fb0c8">creation engine</text>
<rect x="930" y="680" width="360" height="190" rx="22" fill="rgba(15,23,42,.72)" stroke="rgba(148,163,184,.35)" filter="url(#shadow)"/>
<rect x="948" y="700" width="324" height="86" rx="16" fill="rgba(34,211,238,.08)" stroke="rgba(34,211,238,.26)"/>
<circle cx="978" cy="730" r="16" fill="url(#cyan)"/>
<rect x="1008" y="718" width="230" height="10" rx="5" fill="#334155"/>
<rect x="1008" y="740" width="170" height="10" rx="5" fill="#1e293b"/>
<text x="952" y="815" class="label" font-size="23" font-weight="950" fill="#f8fafc">11. Admin AI Map</text>
<text x="952" y="844" class="label" font-size="15" font-weight="700" fill="#9fb0c8">control plane</text>
<rect x="1350" y="680" width="360" height="190" rx="22" fill="rgba(15,23,42,.72)" stroke="rgba(148,163,184,.35)" filter="url(#shadow)"/>
<rect x="1368" y="700" width="324" height="86" rx="16" fill="rgba(34,211,238,.08)" stroke="rgba(34,211,238,.26)"/>
<circle cx="1398" cy="730" r="16" fill="url(#cyan)"/>
<rect x="1428" y="718" width="230" height="10" rx="5" fill="#334155"/>
<rect x="1428" y="740" width="170" height="10" rx="5" fill="#1e293b"/>
<text x="1372" y="815" class="label" font-size="23" font-weight="950" fill="#f8fafc">12. Pricing</text>
<text x="1372" y="844" class="label" font-size="15" font-weight="700" fill="#9fb0c8">conversion</text>
<text x="900" y="965" text-anchor="middle" class="label" font-size="20" font-weight="900" fill="#fde68a">Use this sequence for investor decks, sales PDFs, website visuals, and demo videos.</text>
</svg>
